<?xml version="1.0" encoding="utf-8"?>
<!DOCTYPE svg PUBLIC "-//W3C//DTD SVG 1.0//EN" "http://www.w3.org/TR/2001/REC-SVG-20010904/DTD/svg10.dtd">
<svg version="1.0" xmlns="http://www.w3.org/2000/svg" width="205px" height="174px" viewBox="0 0 205 174" preserveAspectRatio="xMidYMid meet">
 <g fill="#080808">
 </g>
 <g fill="#101010">
  <path d="M1.4 139.6 c-0.6 -1.7 2.2 -7.6 3.6 -7.6 1.1 0 1.3 4.9 0.4 7.4 -0.8 2 -3.3 2.1 -4 0.2z"/>
  <path d="M195.1 127.9 c-0.6 -1.8 -1.1 -4 -1.1 -5 0 -1.1 -0.4 -1.9 -1 -1.9 -0.5 0 -1 -1.1 -1 -2.5 0 -1.4 -0.4 -2.5 -1 -2.5 -0.5 0 -1 -0.9 -1 -2.1 0 -1.1 -0.7 -2.7 -1.5 -3.5 -0.8 -0.9 -1.5 -2.6 -1.5 -4 0 -1.3 -0.4 -2.4 -0.8 -2.4 -0.8 0 -5.2 -9.6 -5.2 -11.2 0 -0.4 -1.1 -1.9 -2.5 -3.4 -2.4 -2.5 -2.6 -2.6 -4.3 -1.1 -1.2 1.1 -3.6 1.7 -6.8 1.7 -4.8 0 -5 -0.1 -6.7 -4 -0.9 -2.2 -1.7 -4.7 -1.7 -5.5 0 -0.8 -0.4 -1.5 -1 -1.5 -0.5 0 -1 -0.9 -1 -2 0 -1.1 -0.4 -2 -1 -2 -0.5 0 -1 -0.9 -1 -2 0 -1.1 -0.4 -2 -1 -2 -0.5 0 -1 -1.6 -1 -3.5 0 -1.9 0.5 -3.5 1 -3.5 0.6 0 3.6 5.2 6.7 11.5 3 6.3 5.8 11.7 6.2 12 0.4 0.2 2.3 -1.1 4.1 -3 1.9 -1.9 4.2 -3.5 5.1 -3.5 4.2 0 9.1 9.6 24.6 48.8 0.3 0.7 -0.4 1.2 -2 1.2 -1.9 0 -2.8 -0.7 -3.6 -3.1z"/>
  <path d="M13 116.4 c0 -0.3 1.4 -3.1 3.2 -6.2 4.7 -8.4 17.8 -35 23.8 -48.4 6.8 -15 8.6 -15.8 16.5 -6.6 l3.6 4.3 -2.6 0.3 c-2.8 0.4 -6.5 -2.2 -6.5 -4.5 0 -0.7 -0.5 -1.3 -1.1 -1.3 -1.6 0 -3.9 2.6 -3.9 4.4 0 0.9 -0.4 1.6 -1 1.6 -0.5 0 -1 1.1 -1 2.5 0 1.4 -0.4 2.5 -1 2.5 -0.5 0 -1 0.9 -1 2 0 1.1 -0.7 2 -1.5 2 -1 0 -1.5 1 -1.5 3 0 3.1 -4.5 13.2 -6.1 13.8 -0.5 0.2 -0.9 1.2 -0.9 2.3 0 1 -0.7 1.9 -1.5 1.9 -1 0 -1.5 1.1 -1.5 3.5 0 2.4 -0.5 3.5 -1.5 3.5 -0.9 0 -1.5 0.9 -1.5 2.5 0 1.4 -0.4 2.5 -1 2.5 -0.5 0 -1 0.7 -1 1.5 0 2 -4.2 10.5 -5.2 10.5 -0.4 0 -0.8 0.7 -0.8 1.5 0 0.9 -0.9 1.5 -2.5 1.5 -1.4 0 -2.5 -0.2 -2.5 -0.6z"/>
  <path d="M66.3 62.8 c1.4 -1.8 5.1 -9.1 8.4 -16.2 6 -13.3 8.3 -16.2 8.3 -10.7 0 3.3 -1.9 8.1 -3.2 8.1 -0.4 0 -0.8 0.9 -0.8 2 0 2.4 -2.1 7 -3.2 7 -0.4 0 -0.8 0.9 -0.8 2 0 1.1 -1 4 -2.2 6.5 -2 4 -2.6 4.5 -5.6 4.5 l-3.3 0 2.4 -3.2z"/>
  <path d="M148.4 60 c-0.4 -1.6 -1 -3 -1.5 -3 -0.5 0 -0.9 -0.7 -0.9 -1.5 0 -0.8 -0.8 -2.3 -1.7 -3.3 -1 -1.1 -2.6 -3.3 -3.5 -5 -1.8 -3.4 -3.8 -4.2 -3.8 -1.7 0 0.8 -0.4 1.5 -1 1.5 -0.5 0 -1 0.7 -1 1.5 0 0.8 -0.4 1.5 -1 1.5 -0.5 0 -1 0.7 -1 1.5 0 1.6 -1.5 1.8 -7.2 0.9 -4.2 -0.7 -6.8 -4.4 -6.8 -9.6 0 -4.3 2.2 -3.3 5.1 2.4 1.5 2.9 3 5.3 3.5 5.5 0.5 0.2 2.6 -2.4 4.8 -5.7 4.1 -6.4 6.9 -7.6 9.8 -4.2 1.6 1.8 11.8 20.5 11.8 21.6 0 0.3 -1.1 0.6 -2.5 0.6 -2 0 -2.7 -0.6 -3.1 -3z"/>
  <path d="M113.4 33.3 c-0.4 -1.5 -1.3 -3.4 -2.1 -4.1 -0.7 -0.7 -1.3 -2.4 -1.3 -3.8 0 -1.3 -0.6 -2.4 -1.3 -2.4 -1.8 0 -3.7 -4.3 -3.7 -8 0 -2.5 -0.4 -3 -2.5 -3 -1.6 0 -2.5 -0.6 -2.5 -1.5 0 -2.2 -1.8 -1.8 -2.5 0.5 -0.3 1.1 -1 2 -1.5 2 -0.4 0 -1.1 1.1 -1.4 2.5 -0.4 1.4 -1.1 2.5 -1.6 2.5 -0.6 0 -1 0.7 -1 1.5 0 0.9 -0.9 1.5 -2.5 1.5 -1.4 0 -2.5 -0.3 -2.5 -0.6 0 -1.1 7.9 -14.1 9.4 -15.3 2.5 -2.1 5.2 -0.4 9.2 5.6 3.8 5.8 13.3 23.2 13.4 24.6 0 0.4 -1.1 0.7 -2.5 0.7 -1.9 0 -2.6 -0.7 -3.1 -2.7z"/>
 </g>
 <g fill="#191919">
  <path d="M2.3 137.6 c0.3 -1.8 3.5 -8.4 7.1 -14.7 3.7 -6.3 8.5 -15.2 10.9 -19.9 2.3 -4.7 4.5 -8.6 5 -8.8 0.4 -0.2 0.7 -0.9 0.7 -1.5 0 -0.6 2.3 -5.9 5.2 -11.7 2.8 -5.8 6.1 -12.7 7.4 -15.5 1.2 -2.7 3.3 -7.3 4.6 -10.2 2.4 -5.4 4.9 -7 7.8 -5 0.9 0.7 4.3 4.2 7.5 7.8 5 5.7 6.1 6.5 7.6 5.6 1.5 -0.9 5.3 -7.7 5.4 -9.7 0.1 -0.3 1.8 -4.1 3.9 -8.5 2.1 -4.4 4.5 -9.7 5.2 -11.9 1.3 -3.4 4.1 -9 10 -19.5 5.6 -10 9.6 -12.5 11.9 -7.3 0.5 1.2 1.3 2.2 1.7 2.2 0.4 0 1.9 2.3 3.4 5.1 1.4 2.9 3 5.7 3.5 6.3 1.7 2.1 10.9 20.6 10.9 22 0 0.7 0.7 1.9 1.5 2.6 0.9 0.7 1.3 1.5 1 1.8 -0.6 0.6 2.4 4.2 3.5 4.2 0.4 0 2.4 -2.5 4.4 -5.5 2 -3.1 4.4 -5.9 5.2 -6.2 3.1 -1.2 6.7 4.1 18.3 27.2 3.7 7.2 7.2 14.7 8 16.7 0.8 2.1 2 4 2.8 4.2 0.7 0.3 3.2 -1.1 5.5 -3.2 l4.1 -3.7 3.8 4.5 c2.2 2.5 3.9 4.8 3.9 5.2 0 0.5 1.4 3.8 3.1 7.5 3.3 7.5 5 11.3 6.9 15.8 0.7 1.7 1.6 3.8 2.1 4.7 0.5 1 0.9 2.3 0.9 2.9 0 0.7 1.6 4.5 3.6 8.6 1.9 4.1 3.4 8.2 3.2 9.1 -0.3 1.6 -7.2 1.7 -101.2 2 l-100.9 0.2 0.6 -3.4z"/>
 </g>
 <g fill="#212121">
 </g>
 <g fill="#292929">
 </g>
 <g fill="#313131">
 </g>
 <g fill="#3a3a3a">
 </g>
 <g fill="#424242">
 </g>
 <g fill="#4a4a4a">
 </g>
 <g fill="#525252">
 </g>
 <g fill="#5a5a5a">
 </g>
 <g fill="#636363">
 </g>
 <g fill="#6b6b6b">
 </g>
 <g fill="#737373">
 </g>
 <g fill="#7b7b7b">
 </g>
 <g fill="#848484">
 </g>
 <g fill="#8c8c8c">
 </g>
 <g fill="#949494">
 </g>
 <g fill="#9c9c9c">
 </g>
 <g fill="#a5a5a5">
 </g>
 <g fill="#adadad">
 </g>
 <g fill="#b5b5b5">
 </g>
 <g fill="#bdbdbd">
 </g>
 <g fill="#c5c5c5">
 </g>
 <g fill="#cecece">
 </g>
 <g fill="#d6d6d6">
 </g>
 <g fill="#dedede">
 </g>
 <g fill="#e6e6e6">
 </g>
 <g fill="#efefef">
 </g>
 <g fill="#f7f7f7">
 </g>
 <g fill="#ffffff">
 </g>
</svg>